<?xml version="1.0" encoding="utf-8"?>
<!-- Svg Vector Icons : http://www.onlinewebfonts.com/icon -->
<!DOCTYPE svg PUBLIC "-//W3C//DTD SVG 1.1//EN" "http://www.w3.org/Graphics/SVG/1.1/DTD/svg11.dtd">
<svg version="1.1" xmlns="http://www.w3.org/2000/svg" xmlns:xlink="http://www.w3.org/1999/xlink" x="0px" y="0px" viewBox="0 0 1000 1000" enable-background="new 0 0 1000 1000" xml:space="preserve">
<metadata> Svg Vector Icons : http://www.onlinewebfonts.com/icon </metadata>
<g><g transform="translate(0.000000,512.000000) scale(0.100000,-0.100000)"><path d="M4516.7,5022.2c0-3.8-73.2-346.6-157.9-764.3L4201,3497.3l-202.2-59.7c-258-78.9-367.7-123.2-614.2-252.2c-111.7-57.8-207.9-104-217.6-104c-7.7,0-302.3,190.6-654.6,425.5l-637.3,425.5l-344.6-346.6L1184,3241.2l425.5-637.3c234.9-352.3,425.5-646.9,425.5-654.6c0-9.6-46.2-105.9-104-217.6c-129-246.4-173.3-356.2-252.2-614.2l-59.7-202.2L858.6,759.5L100,605.4V116.4v-487.1l741.3-152.1c406.2-80.8,749-154,762.4-157.9c11.6-3.8,36.6-67.4,55.8-140.6c53.9-204.1,156-458.2,271.5-677.7c57.8-111.7,104-207.9,104-217.6c0-7.7-190.6-302.3-425.5-654.6L1184-3008.4l346.6-344.6l344.6-346.6l637.3,425.5c352.3,234.9,646.9,425.5,654.6,425.5c9.6,0,105.9-46.2,217.6-104c219.5-115.5,473.6-217.6,677.7-271.5c73.2-19.3,136.7-44.3,140.6-55.8c3.8-11.5,75.1-354.3,157.9-762.4l150.2-741.3h489h487.1l150.2,739.3c82.8,406.2,154,748.9,157.9,762.4c5.8,11.5,69.3,38.5,142.5,57.8c186.8,50,487.1,169.4,697,281.1c100.1,52,188.7,94.3,198.3,94.3c7.7,0,302.3-190.6,654.6-425.5l637.3-425.5l344.6,346.6l346.6,344.6l-425.5,637.3c-234.9,352.4-425.5,646.9-425.5,654.6c0,9.6,42.4,98.2,94.3,198.3c111.7,209.9,231,510.2,281.1,697c19.3,73.2,46.2,136.7,57.8,142.5c13.5,3.8,356.2,75.1,762.4,157.9L9900-370.7v487.1v489.1l-760.5,154l-758.6,155.9l-52,173.3c-73.2,250.3-138.6,413.9-258,643.1c-57.8,109.8-105.9,207.9-105.9,217.6c0,7.7,190.6,302.3,425.5,654.6l425.5,637.3l-346.6,344.6l-344.6,346.6l-637.3-425.5c-352.3-234.9-646.9-425.5-654.6-425.5c-9.6,0-105.9,46.2-217.6,104c-219.5,115.5-473.7,217.6-677.7,271.5c-73.2,19.2-136.7,44.3-140.5,55.8c-3.9,13.5-77,356.2-157.9,762.4l-152.1,741.3l-483.3,5.8C4736.2,5024.1,4518.7,5024.1,4516.7,5022.2z M5510.2,2022.5c321.5-86.6,598.8-246.4,851-487.1c263.8-252.2,452.5-569.9,548.7-918.4c38.5-144.4,44.3-206,42.4-510.2c0-321.5-3.8-360-52-519.8c-109.7-358.1-275.3-635.4-529.5-879.9c-248.4-240.7-496.7-385.1-841.4-491c-161.7-48.1-196.4-52-529.5-52c-333.1,0-367.7,3.8-529.5,52c-573.8,175.2-1014.7,552.6-1261.1,1078.2c-132.8,283-163.7,437.1-163.7,822.1c0,292.7,5.8,358.1,44.3,500.6c88.6,321.5,246.5,602.6,475.6,845.2c294.6,311.9,639.2,504.4,1049.3,591.1C4811.3,2093.7,5313.8,2076.4,5510.2,2022.5z"/></g></g>
</svg>