<?xml version="1.0" standalone="no"?>
<!DOCTYPE svg PUBLIC "-//W3C//DTD SVG 20010904//EN"
 "http://www.w3.org/TR/2001/REC-SVG-20010904/DTD/svg10.dtd">
<svg version="1.0" xmlns="http://www.w3.org/2000/svg"
 width="840.000000pt" height="859.000000pt" viewBox="0 0 840.000000 859.000000"
 preserveAspectRatio="xMidYMid meet">

<g transform="translate(0.000000,859.000000) scale(0.100000,-0.100000)"
fill="#000000" stroke="none">
<path d="M4020 8195 c-127 -23 -194 -52 -256 -112 -74 -71 -95 -136 -114 -343
-29 -328 -28 -323 -60 -352 -16 -16 -38 -28 -48 -28 -22 0 -118 -27 -144 -41
-10 -5 -26 -9 -36 -9 -10 0 -27 -7 -38 -15 -10 -8 -29 -15 -41 -15 -12 0 -24
-4 -27 -9 -3 -5 -22 -12 -41 -15 -19 -4 -35 -11 -35 -16 0 -6 -10 -10 -22 -10
-13 0 -32 -7 -42 -15 -11 -8 -28 -15 -37 -15 -10 0 -19 -3 -21 -7 -1 -5 -20
-16 -41 -25 -20 -10 -54 -26 -75 -35 -20 -10 -38 -21 -40 -25 -2 -5 -9 -8 -16
-8 -6 0 -27 -11 -46 -24 -44 -29 -89 -40 -121 -27 -14 5 -46 30 -72 55 -26 25
-73 65 -105 88 -71 52 -76 57 -113 91 -16 15 -32 27 -35 27 -3 0 -17 11 -32
25 -53 50 -125 75 -212 75 -44 0 -88 -4 -98 -10 -9 -5 -37 -19 -62 -30 -46
-21 -81 -40 -90 -50 -3 -3 -32 -27 -65 -52 -83 -64 -272 -252 -335 -334 -87
-112 -130 -183 -130 -216 0 -9 -5 -20 -10 -23 -13 -8 -13 -172 -1 -180 5 -3
12 -19 16 -35 4 -17 11 -30 16 -30 5 0 9 -5 9 -11 0 -9 45 -75 61 -89 3 -3 25
-32 50 -65 24 -32 51 -66 59 -75 8 -9 31 -35 50 -59 19 -24 40 -48 45 -54 31
-35 45 -65 45 -99 0 -21 -4 -38 -9 -38 -5 0 -13 -10 -17 -22 -4 -13 -10 -25
-13 -28 -10 -8 -121 -235 -121 -248 0 -7 -4 -12 -10 -12 -5 0 -10 -9 -10 -20
0 -11 -4 -28 -10 -38 -15 -28 -37 -84 -57 -142 -10 -30 -20 -57 -23 -60 -3 -3
-11 -25 -18 -50 -7 -25 -18 -61 -23 -80 -6 -19 -13 -46 -16 -60 -11 -47 -41
-64 -128 -73 -318 -30 -438 -46 -449 -57 -6 -6 -20 -10 -32 -10 -12 0 -27 -7
-34 -15 -7 -8 -17 -15 -23 -15 -5 0 -26 -18 -46 -39 -33 -36 -44 -54 -80 -131
-48 -104 -65 -573 -27 -751 21 -96 39 -159 47 -159 4 0 10 -11 13 -24 9 -37
75 -101 131 -129 61 -31 231 -58 472 -76 73 -5 116 -13 125 -22 14 -13 27 -50
64 -171 9 -29 19 -62 23 -73 5 -11 16 -45 26 -75 10 -30 22 -59 26 -65 5 -5 9
-16 9 -25 0 -8 7 -28 15 -44 8 -15 15 -35 15 -42 0 -8 5 -14 10 -14 6 0 10 -5
10 -11 0 -6 13 -40 30 -76 16 -35 30 -68 30 -73 0 -5 3 -10 8 -12 4 -1 16 -21
27 -43 11 -22 26 -46 32 -53 7 -7 13 -20 13 -28 0 -8 5 -14 10 -14 6 0 10 -17
10 -39 0 -27 -7 -46 -25 -65 -14 -15 -25 -29 -25 -32 0 -3 -10 -15 -22 -27
-13 -12 -43 -47 -68 -77 -24 -30 -48 -56 -52 -58 -5 -2 -8 -9 -8 -16 0 -6 -8
-19 -17 -27 -10 -9 -27 -29 -38 -44 -11 -16 -30 -39 -41 -52 -12 -13 -28 -38
-35 -56 -7 -17 -18 -35 -23 -39 -16 -11 -14 -204 2 -219 6 -7 12 -21 12 -30 0
-10 6 -24 14 -31 7 -8 16 -23 20 -34 3 -11 14 -29 24 -40 10 -10 25 -29 33
-41 46 -67 214 -242 309 -323 22 -19 55 -47 72 -62 17 -14 46 -34 64 -44 19
-10 34 -22 34 -26 0 -5 5 -8 10 -8 6 0 34 -12 63 -26 44 -22 66 -26 140 -27
50 0 92 4 95 10 4 5 19 13 35 17 15 3 27 11 27 16 0 6 6 10 13 10 7 0 24 11
39 25 15 14 31 25 37 25 5 0 11 4 13 8 2 4 23 23 48 42 25 19 47 37 50 40 3 3
19 16 35 29 17 12 47 38 67 57 62 57 109 84 144 84 19 0 34 -4 34 -10 0 -5 6
-10 14 -10 8 0 21 -6 28 -12 7 -7 31 -22 53 -33 22 -11 42 -22 45 -26 3 -3 26
-14 52 -25 27 -10 48 -22 48 -26 0 -5 7 -8 16 -8 9 0 28 -6 42 -14 40 -21 99
-46 109 -46 5 0 27 -9 49 -19 22 -11 54 -23 70 -26 16 -4 38 -10 49 -15 57
-23 113 -40 133 -40 12 0 22 -4 22 -9 0 -4 16 -11 35 -14 67 -11 62 9 95 -372
15 -180 44 -268 108 -337 34 -37 146 -90 202 -96 25 -2 50 -9 57 -14 30 -24
524 -19 648 7 46 9 139 39 145 46 3 4 15 9 27 13 13 4 40 24 60 45 35 34 47
55 81 131 11 24 23 111 42 310 20 216 36 270 78 270 18 0 79 18 104 31 9 5 35
12 58 15 22 4 40 10 40 15 0 5 9 9 21 9 19 0 68 18 111 41 10 5 23 9 29 9 21
0 252 110 257 123 2 4 10 7 18 7 8 0 31 11 52 24 20 12 47 26 60 30 12 4 22
12 22 17 0 5 16 9 35 9 32 0 69 -16 102 -45 6 -5 30 -26 54 -45 24 -19 50 -42
59 -50 9 -8 42 -35 75 -60 67 -50 90 -68 113 -90 8 -8 40 -28 71 -44 49 -25
67 -28 141 -29 81 0 89 2 165 42 114 60 157 94 340 270 93 89 245 276 245 301
0 5 5 10 10 10 6 0 10 8 10 18 0 9 7 31 16 47 11 20 17 57 17 111 1 70 -3 88
-27 136 -15 30 -39 67 -52 81 -13 14 -24 31 -24 37 0 5 -4 10 -8 10 -5 0 -23
19 -40 43 -17 23 -42 54 -56 69 -14 15 -26 30 -26 33 0 5 -30 40 -92 108 -33
36 -38 48 -38 89 0 34 7 57 25 84 14 20 25 43 25 50 0 7 3 14 8 16 11 5 72
126 72 143 0 8 5 15 10 15 6 0 10 8 10 18 0 10 7 27 15 38 8 10 15 29 15 41 0
12 4 23 9 25 7 3 20 36 62 158 7 19 15 44 19 55 18 48 40 129 40 147 0 11 13
33 29 49 31 31 46 34 311 58 147 14 253 31 265 42 5 5 15 9 23 9 16 0 81 47
100 72 7 9 18 23 26 30 12 13 26 42 54 110 6 15 14 51 18 80 4 29 11 58 16 65
5 6 7 130 5 290 -4 263 -15 385 -38 408 -5 5 -9 17 -9 27 0 24 -46 96 -82 129
-15 14 -45 34 -66 44 -20 10 -45 22 -55 27 -20 10 -222 35 -457 56 -75 7 -120
26 -120 49 0 7 -4 13 -9 13 -5 0 -11 12 -14 28 -8 41 -28 115 -37 137 -25 61
-40 108 -40 124 0 11 -3 21 -8 23 -4 2 -23 42 -42 91 -19 48 -38 87 -42 87 -5
0 -8 9 -8 20 0 17 -18 55 -96 200 -11 19 -23 38 -29 42 -5 4 -10 27 -9 52 1
48 21 82 96 161 21 22 38 43 38 47 0 4 16 23 35 44 19 20 35 41 35 45 0 5 14
22 30 39 17 17 30 33 30 36 0 3 11 17 25 32 14 15 25 32 25 39 0 7 3 13 8 13
29 0 56 202 33 248 -5 9 -18 37 -30 62 -25 52 -41 79 -58 98 -7 7 -13 17 -13
21 0 4 -8 16 -17 27 -10 11 -45 51 -78 89 -74 85 -184 195 -239 238 -23 17
-43 34 -46 37 -36 38 -171 120 -198 120 -6 0 -12 5 -14 10 -2 6 -39 11 -89 11
-78 0 -94 -3 -153 -32 -36 -18 -66 -36 -66 -41 0 -4 -5 -8 -11 -8 -6 0 -29
-18 -51 -40 -22 -22 -43 -40 -47 -40 -4 0 -16 -8 -27 -18 -10 -9 -39 -33 -64
-51 -25 -19 -55 -45 -66 -58 -12 -13 -24 -23 -28 -23 -4 0 -18 -12 -32 -27
-22 -24 -33 -28 -76 -26 -28 0 -53 5 -57 10 -13 18 -221 123 -243 123 -10 0
-18 5 -18 10 0 6 -5 10 -10 10 -6 0 -33 11 -62 25 -28 14 -56 25 -61 25 -5 0
-23 6 -40 14 -44 20 -277 96 -294 96 -24 0 -61 30 -71 58 -6 15 -15 77 -21
137 -6 61 -13 128 -16 150 -3 22 -10 80 -15 130 -5 49 -13 99 -19 110 -5 11
-14 34 -20 50 -23 60 -132 151 -201 168 -14 3 -45 10 -70 16 -25 7 -64 16 -88
21 -59 14 -502 10 -582 -5z m560 -2119 c103 -19 196 -40 205 -47 6 -4 30 -10
55 -14 24 -4 51 -11 60 -15 8 -4 31 -15 50 -23 19 -8 60 -27 90 -41 30 -14 61
-26 68 -26 6 0 12 -4 12 -9 0 -5 10 -13 23 -17 12 -4 24 -9 27 -13 8 -10 44
-31 63 -37 9 -4 17 -10 17 -15 0 -5 5 -9 11 -9 9 0 81 -50 99 -70 3 -3 27 -23
54 -45 60 -47 168 -156 205 -205 14 -19 28 -37 31 -40 19 -18 70 -90 70 -99 0
-6 3 -11 8 -11 4 0 16 -17 27 -37 11 -21 26 -44 32 -51 7 -7 13 -20 13 -28 0
-8 5 -14 10 -14 6 0 10 -5 10 -11 0 -7 18 -49 40 -95 22 -46 40 -92 40 -103 0
-11 4 -22 9 -25 5 -3 12 -23 16 -43 4 -21 10 -42 15 -48 8 -11 13 -33 30 -135
6 -36 16 -87 21 -115 22 -106 3 -474 -32 -600 -40 -147 -50 -179 -75 -228 -8
-16 -14 -37 -14 -47 0 -10 -3 -20 -7 -22 -11 -4 -43 -67 -43 -84 0 -8 -4 -14
-10 -14 -5 0 -10 -6 -10 -13 0 -6 -25 -50 -55 -96 -30 -46 -55 -88 -55 -92 0
-4 -3 -9 -8 -11 -4 -1 -23 -23 -42 -48 -41 -52 -212 -224 -260 -260 -19 -14
-38 -30 -44 -36 -6 -6 -16 -13 -21 -15 -6 -2 -41 -25 -80 -50 -83 -55 -183
-109 -201 -109 -7 0 -14 -3 -16 -8 -3 -8 -133 -60 -182 -73 -17 -4 -67 -17
-111 -28 -44 -12 -91 -21 -106 -21 -14 0 -30 -5 -36 -11 -12 -12 -453 -16
-473 -4 -7 4 -37 11 -68 15 -55 7 -136 25 -177 40 -11 4 -51 17 -90 30 -106
34 -334 150 -379 191 -11 11 -23 19 -27 19 -4 0 -14 6 -21 13 -7 6 -30 25 -51
41 -21 15 -52 41 -68 57 -16 16 -32 29 -34 29 -3 0 -23 18 -45 40 -22 22 -40
42 -40 45 0 2 -13 18 -29 34 -16 16 -42 47 -57 68 -16 21 -32 40 -35 43 -35
30 -200 333 -215 396 -4 16 -10 34 -15 39 -8 11 -15 36 -49 180 -40 173 -42
188 -37 405 4 206 9 255 46 395 31 118 36 135 43 135 5 0 8 8 8 17 0 19 31
105 40 113 4 3 15 26 26 52 10 27 22 48 27 48 4 0 7 5 7 12 0 11 58 107 70
118 4 3 9 12 13 20 8 18 30 53 37 60 3 3 21 25 40 50 37 49 227 240 238 240 4
0 24 16 44 35 20 19 39 35 42 35 3 0 31 18 62 40 32 22 63 40 71 40 7 0 13 4
13 10 0 5 11 12 25 16 14 3 25 10 25 15 0 5 6 9 14 9 17 0 80 32 84 43 2 4 13
7 24 7 11 0 32 6 46 14 46 23 76 35 112 42 19 3 40 10 45 14 11 9 40 15 140
30 39 6 84 15 100 20 33 9 410 6 465 -4z"/>
</g>
</svg>
